<svg width="472" height="96" viewBox="0 0 472 96" fill="none" xmlns="http://www.w3.org/2000/svg">
<path d="M132.216 64.448C127.992 64.448 124.109 63.4667 120.568 61.504C117.069 59.5413 114.275 56.8107 112.184 53.312C110.136 49.7707 109.112 45.8027 109.112 41.408C109.112 37.0133 110.136 33.0667 112.184 29.568C114.275 26.0693 117.069 23.3387 120.568 21.376C124.109 19.4133 127.992 18.432 132.216 18.432C136.44 18.432 140.301 19.4133 143.8 21.376C147.341 23.3387 150.115 26.0693 152.12 29.568C154.168 33.0667 155.192 37.0133 155.192 41.408C155.192 45.8027 154.168 49.7707 152.12 53.312C150.072 56.8107 147.299 59.5413 143.8 61.504C140.301 63.4667 136.44 64.448 132.216 64.448ZM132.216 54.464C135.8 54.464 138.659 53.2693 140.792 50.88C142.968 48.4907 144.056 45.3333 144.056 41.408C144.056 37.44 142.968 34.2827 140.792 31.936C138.659 29.5467 135.8 28.352 132.216 28.352C128.589 28.352 125.688 29.5253 123.512 31.872C121.379 34.2187 120.312 37.3973 120.312 41.408C120.312 45.376 121.379 48.5547 123.512 50.944C125.688 53.2907 128.589 54.464 132.216 54.464ZM172.225 34.24C173.505 32.2773 175.105 30.7413 177.025 29.632C178.945 28.48 181.078 27.904 183.425 27.904V39.488H180.417C177.686 39.488 175.638 40.0853 174.273 41.28C172.907 42.432 172.225 44.48 172.225 47.424V64H161.281V28.288H172.225V34.24ZM210.416 27.904C214.597 27.904 217.925 29.2693 220.4 32C222.917 34.688 224.176 38.4 224.176 43.136V64H213.296V44.608C213.296 42.2187 212.677 40.3627 211.44 39.04C210.202 37.7173 208.538 37.056 206.448 37.056C204.357 37.056 202.693 37.7173 201.456 39.04C200.218 40.3627 199.6 42.2187 199.6 44.608V64H188.656V28.288H199.6V33.024C200.709 31.4453 202.202 30.208 204.08 29.312C205.957 28.3733 208.069 27.904 210.416 27.904ZM237.285 24.576C235.365 24.576 233.786 24.0213 232.549 22.912C231.354 21.76 230.757 20.352 230.757 18.688C230.757 16.9813 231.354 15.5733 232.549 14.464C233.786 13.312 235.365 12.736 237.285 12.736C239.162 12.736 240.698 13.312 241.893 14.464C243.13 15.5733 243.749 16.9813 243.749 18.688C243.749 20.352 243.13 21.76 241.893 22.912C240.698 24.0213 239.162 24.576 237.285 24.576ZM242.725 28.288V64H231.781V28.288H242.725ZM270.56 54.72V64H264.992C261.024 64 257.93 63.04 255.712 61.12C253.493 59.1573 252.384 55.9787 252.384 51.584V37.376H248.032V28.288H252.384V19.584H263.328V28.288H270.496V37.376H263.328V51.712C263.328 52.7787 263.584 53.5467 264.096 54.016C264.608 54.4853 265.461 54.72 266.656 54.72H270.56ZM298.608 27.904C302.704 27.904 305.989 29.2693 308.464 32C310.938 34.688 312.176 38.4 312.176 43.136V64H301.296V44.608C301.296 42.2187 300.677 40.3627 299.44 39.04C298.202 37.7173 296.538 37.056 294.448 37.056C292.357 37.056 290.693 37.7173 289.456 39.04C288.218 40.3627 287.6 42.2187 287.6 44.608V64H276.656V16.64H287.6V33.088C288.709 31.5093 290.224 30.2507 292.144 29.312C294.064 28.3733 296.218 27.904 298.608 27.904ZM336.037 64.512C332.538 64.512 329.381 63.7653 326.565 62.272C323.791 60.7787 321.594 58.6453 319.973 55.872C318.394 53.0987 317.605 49.856 317.605 46.144C317.605 42.4747 318.415 39.2533 320.036 36.48C321.658 33.664 323.877 31.5093 326.693 30.016C329.509 28.5227 332.666 27.776 336.165 27.776C339.663 27.776 342.821 28.5227 345.637 30.016C348.453 31.5093 350.671 33.664 352.293 36.48C353.914 39.2533 354.725 42.4747 354.725 46.144C354.725 49.8133 353.893 53.056 352.229 55.872C350.607 58.6453 348.367 60.7787 345.509 62.272C342.693 63.7653 339.535 64.512 336.037 64.512ZM336.037 55.04C338.127 55.04 339.898 54.272 341.349 52.736C342.842 51.2 343.589 49.0027 343.589 46.144C343.589 43.2853 342.863 41.088 341.413 39.552C340.005 38.016 338.255 37.248 336.165 37.248C334.031 37.248 332.261 38.016 330.853 39.552C329.445 41.0453 328.741 43.2427 328.741 46.144C328.741 49.0027 329.423 51.2 330.789 52.736C332.197 54.272 333.946 55.04 336.037 55.04ZM371.475 55.552H385.811V64H360.531V19.072H371.475V55.552ZM407.287 64.512C403.788 64.512 400.631 63.7653 397.815 62.272C395.041 60.7787 392.844 58.6453 391.223 55.872C389.644 53.0987 388.855 49.856 388.855 46.144C388.855 42.4747 389.665 39.2533 391.286 36.48C392.908 33.664 395.127 31.5093 397.943 30.016C400.759 28.5227 403.916 27.776 407.415 27.776C410.913 27.776 414.071 28.5227 416.887 30.016C419.703 31.5093 421.921 33.664 423.543 36.48C425.164 39.2533 425.975 42.4747 425.975 46.144C425.975 49.8133 425.143 53.056 423.479 55.872C421.857 58.6453 419.617 60.7787 416.759 62.272C413.943 63.7653 410.785 64.512 407.287 64.512ZM407.287 55.04C409.377 55.04 411.148 54.272 412.599 52.736C414.092 51.2 414.839 49.0027 414.839 46.144C414.839 43.2853 414.113 41.088 412.663 39.552C411.255 38.016 409.505 37.248 407.415 37.248C405.281 37.248 403.511 38.016 402.103 39.552C400.695 41.0453 399.991 43.2427 399.991 46.144C399.991 49.0027 400.673 51.2 402.039 52.736C403.447 54.272 405.196 55.04 407.287 55.04ZM445.349 27.776C447.866 27.776 450.063 28.288 451.941 29.312C453.861 30.336 455.333 31.68 456.357 33.344V28.288H467.301V63.936C467.301 67.2213 466.639 70.1867 465.317 72.832C464.037 75.52 462.053 77.6533 459.365 79.232C456.719 80.8107 453.413 81.6 449.445 81.6C444.154 81.6 439.866 80.3413 436.581 77.824C433.295 75.3493 431.418 71.9787 430.949 67.712H441.765C442.106 69.0773 442.917 70.144 444.197 70.912C445.477 71.7227 447.055 72.128 448.933 72.128C451.194 72.128 452.986 71.4667 454.309 70.144C455.674 68.864 456.357 66.7947 456.357 63.936V58.88C455.29 60.544 453.818 61.9093 451.941 62.976C450.063 64 447.866 64.512 445.349 64.512C442.405 64.512 439.738 63.7653 437.349 62.272C434.959 60.736 433.061 58.5813 431.653 55.808C430.287 52.992 429.605 49.7493 429.605 46.08C429.605 42.4107 430.287 39.1893 431.653 36.416C433.061 33.6427 434.959 31.5093 437.349 30.016C439.738 28.5227 442.405 27.776 445.349 27.776ZM456.357 46.144C456.357 43.4133 455.589 41.2587 454.053 39.68C452.559 38.1013 450.725 37.312 448.549 37.312C446.373 37.312 444.517 38.1013 442.981 39.68C441.487 41.216 440.741 43.3493 440.741 46.08C440.741 48.8107 441.487 50.9867 442.981 52.608C444.517 54.1867 446.373 54.976 448.549 54.976C450.725 54.976 452.559 54.1867 454.053 52.608C455.589 51.0293 456.357 48.8747 456.357 46.144Z" fill="white"/>
<path d="M70.0928 1.09518C69.882 1.17805 68.617 1.5509 67.3098 1.88238C63.1775 3.00101 59.9728 6.68829 58.4547 12.0742C58.1596 13.11 57.8644 14.2286 57.8644 14.56C57.6535 16.3415 54.1116 20.3603 52.7622 20.3603C52.467 20.3603 52.1718 20.4845 52.0875 20.6917C52.0454 20.8574 51.1177 21.6446 50.0635 22.4318C47.8708 24.0476 44.3288 27.072 38.1303 32.5823C37.3291 33.2452 35.3894 34.7366 33.7449 35.8967C32.1003 37.0152 29.2751 39.5425 27.462 41.4483C19.4924 49.7758 15.5287 53.3802 12.4505 55.0374C9.58317 56.5703 9.54096 57.399 12.3662 56.156C17.2575 54.0431 16.7094 55.3274 10.5108 60.6305C8.27599 62.5363 5.99897 64.4835 5.45078 64.9393C3.84844 66.265 -0.241796 70.9052 0.0112303 71.1538C0.68593 71.8167 3.55328 70.118 6.80011 67.135C10.1735 64.0278 10.553 63.7792 13.2517 63.2406C14.8119 62.9092 17.2575 62.2877 18.6491 61.832C24.2573 60.0505 34.8412 58.9733 40.5338 59.5948C42.5156 59.8434 42.5578 59.8848 42.3469 61.1277C42.0518 62.9921 42.3048 63.4064 46.0577 67.3837C51.3707 73.0596 53.7742 76.9541 52.6779 78.0312C52.4249 78.2798 51.0755 78.4456 49.6419 78.4041C46.8166 78.3627 45.4252 78.8598 45.4252 79.8542C45.4252 80.3514 45.636 80.2685 46.2263 79.5641C46.9432 78.6942 47.1118 78.6527 48.3347 79.1913C49.178 79.5228 50.3587 79.6056 51.5815 79.4398C53.0152 79.2742 53.479 79.3155 53.3526 79.7299C53.0152 80.5999 51.202 81.2628 48.925 81.2628C47.7443 81.2628 46.648 81.3871 46.5637 81.5528C46.3107 81.9671 46.7745 82.0086 53.4369 82.2157C56.3464 82.34 59.5089 82.63 60.5209 82.8786C62.4185 83.4172 63.1353 83.2515 63.1353 82.2571C63.1353 81.8428 63.7256 81.6771 65.3701 81.6357C66.5508 81.5943 67.8158 81.5943 68.1531 81.6357C68.4483 81.7186 68.5748 81.5528 68.4061 81.3042C68.2796 81.0143 66.6352 80.8485 64.4846 80.8485C60.4366 80.8485 57.6114 80.1856 56.4729 79.0256C55.7982 78.2798 55.8404 78.2798 58.4969 78.5284C60.0149 78.6527 62.4606 78.9427 63.9786 79.1499C65.7496 79.3985 66.8882 79.3985 67.2255 79.1499C67.5628 78.8598 68.0267 78.9013 68.7013 79.2327C69.5868 79.6884 69.629 79.6884 69.0808 79.067C68.7013 78.5698 67.858 78.3627 66.3821 78.3627C64.2738 78.3627 60.6053 77.8241 57.6535 77.0784C55.7139 76.6226 52.6779 73.1839 50.2322 68.7923L48.4612 65.5193L49.0515 63.5721C49.3888 62.4949 49.5575 61.3348 49.431 61.0448C49.0093 59.8848 50.0213 59.0148 52.467 58.5176C53.8164 58.2276 55.5452 57.7304 56.3042 57.399C57.0632 57.0675 57.8644 56.8189 58.1174 56.8189C58.3704 56.8189 60.2679 55.7003 62.3763 54.3331C64.5268 52.9659 66.34 51.8473 66.5086 51.8473C66.6352 51.8473 67.3098 51.1016 68.0267 50.1487C68.7013 49.2372 69.7555 47.9943 70.4302 47.3728C71.0626 46.7928 71.5687 46.0885 71.5687 45.7571C71.5687 45.4671 71.8638 45.0942 72.2012 44.9699C72.5385 44.8456 72.918 44.307 73.0867 43.8513C73.2132 43.3541 73.5927 42.3598 73.8879 41.6969C74.183 40.9926 74.7312 38.7553 75.0685 36.7252C75.448 34.6537 75.8697 32.5408 75.9962 31.9608C76.4178 30.5107 76.5444 29.5164 77.0504 24.2961C77.6407 18.8688 78.0624 17.2116 79.7491 13.98C81.3936 10.9142 82.9959 9.71268 86.7909 8.75982C88.4355 8.34547 89.8691 7.88974 89.9956 7.80692C90.5016 7.30972 88.0981 6.60541 85.3572 6.48111C82.7007 6.31541 82.3212 6.19111 82.0261 5.40396C81.5622 4.20247 80.7189 3.53955 78.1045 2.3381C76.207 1.50949 71.2313 0.722287 70.0928 1.09518Z" fill="white"/>
</svg>
